<?xml version="1.0" encoding="UTF-8" standalone="no"?>
<!DOCTYPE svg PUBLIC "-//W3C//DTD SVG 1.1//EN"
 "http://www.w3.org/Graphics/SVG/1.1/DTD/svg11.dtd">
<!-- Generated by graphviz version 2.43.0 (0)
 -->
<!-- Title: snakemake_dag Pages: 1 -->
<svg width="643pt" height="404pt"
 viewBox="0.00 0.00 643.31 404.00" xmlns="http://www.w3.org/2000/svg" xmlns:xlink="http://www.w3.org/1999/xlink">
<g id="graph0" class="graph" transform="scale(1 1) rotate(0) translate(4 400)">
<title>snakemake_dag</title>
<polygon fill="white" stroke="transparent" points="-4,4 -4,-400 639.31,-400 639.31,4 -4,4"/>
<!-- 0 -->
<g id="node1" class="node">
<title>0</title>
<path fill="none" stroke="#d85656" stroke-width="2" d="M266.31,-36C266.31,-36 236.31,-36 236.31,-36 230.31,-36 224.31,-30 224.31,-24 224.31,-24 224.31,-12 224.31,-12 224.31,-6 230.31,0 236.31,0 236.31,0 266.31,0 266.31,0 272.31,0 278.31,-6 278.31,-12 278.31,-12 278.31,-24 278.31,-24 278.31,-30 272.31,-36 266.31,-36"/>
<text text-anchor="middle" x="251.31" y="-15.5" font-family="sans" font-size="10.00">all</text>
</g>
<!-- 1 -->
<g id="node2" class="node">
<title>1</title>
<path fill="none" stroke="#c6d856" stroke-width="2" stroke-dasharray="5,2" d="M85.31,-252C85.31,-252 33.31,-252 33.31,-252 27.31,-252 21.31,-246 21.31,-240 21.31,-240 21.31,-228 21.31,-228 21.31,-222 27.31,-216 33.31,-216 33.31,-216 85.31,-216 85.31,-216 91.31,-216 97.31,-222 97.31,-228 97.31,-228 97.31,-240 97.31,-240 97.31,-246 91.31,-252 85.31,-252"/>
<text text-anchor="middle" x="59.31" y="-231.5" font-family="sans" font-size="10.00">run_docking</text>
</g>
<!-- 1&#45;&gt;0 -->
<g id="edge1" class="edge">
<title>1&#45;&gt;0</title>
<path fill="none" stroke="grey" stroke-width="2" d="M37.16,-215.87C26.9,-206.52 15.79,-194 10.31,-180 -7.61,-134.21 -1.86,-105.31 34.31,-72 60.31,-48.06 159.27,-31.34 214.14,-23.7"/>
<polygon fill="grey" stroke="grey" stroke-width="2" points="214.73,-27.15 224.16,-22.34 213.78,-20.22 214.73,-27.15"/>
</g>
<!-- 4 -->
<g id="node5" class="node">
<title>4</title>
<path fill="none" stroke="#56d87b" stroke-width="2" stroke-dasharray="5,2" d="M82.81,-180C82.81,-180 31.81,-180 31.81,-180 25.81,-180 19.81,-174 19.81,-168 19.81,-168 19.81,-156 19.81,-156 19.81,-150 25.81,-144 31.81,-144 31.81,-144 82.81,-144 82.81,-144 88.81,-144 94.81,-150 94.81,-156 94.81,-156 94.81,-168 94.81,-168 94.81,-174 88.81,-180 82.81,-180"/>
<text text-anchor="middle" x="57.31" y="-159.5" font-family="sans" font-size="10.00">postprocess</text>
</g>
<!-- 1&#45;&gt;4 -->
<g id="edge11" class="edge">
<title>1&#45;&gt;4</title>
<path fill="none" stroke="grey" stroke-width="2" d="M58.82,-215.7C58.6,-207.98 58.33,-198.71 58.09,-190.11"/>
<polygon fill="grey" stroke="grey" stroke-width="2" points="61.59,-190 57.8,-180.1 54.59,-190.2 61.59,-190"/>
</g>
<!-- 5 -->
<g id="node6" class="node">
<title>5</title>
<path fill="none" stroke="#56a2d8" stroke-width="2" stroke-dasharray="5,2" d="M334.81,-180C334.81,-180 243.81,-180 243.81,-180 237.81,-180 231.81,-174 231.81,-168 231.81,-168 231.81,-156 231.81,-156 231.81,-150 237.81,-144 243.81,-144 243.81,-144 334.81,-144 334.81,-144 340.81,-144 346.81,-150 346.81,-156 346.81,-156 346.81,-168 346.81,-168 346.81,-174 340.81,-180 334.81,-180"/>
<text text-anchor="middle" x="289.31" y="-159.5" font-family="sans" font-size="10.00">split_docking_poses</text>
</g>
<!-- 1&#45;&gt;5 -->
<g id="edge12" class="edge">
<title>1&#45;&gt;5</title>
<path fill="none" stroke="grey" stroke-width="2" d="M97.55,-221.36C131.85,-210.92 182.9,-195.39 223.71,-182.97"/>
<polygon fill="grey" stroke="grey" stroke-width="2" points="224.77,-186.3 233.31,-180.04 222.73,-179.61 224.77,-186.3"/>
</g>
<!-- 2 -->
<g id="node3" class="node">
<title>2</title>
<path fill="none" stroke="#56d8c9" stroke-width="2" stroke-dasharray="5,2" d="M112.81,-324C112.81,-324 35.81,-324 35.81,-324 29.81,-324 23.81,-318 23.81,-312 23.81,-312 23.81,-300 23.81,-300 23.81,-294 29.81,-288 35.81,-288 35.81,-288 112.81,-288 112.81,-288 118.81,-288 124.81,-294 124.81,-300 124.81,-300 124.81,-312 124.81,-312 124.81,-318 118.81,-324 112.81,-324"/>
<text text-anchor="middle" x="74.31" y="-303.5" font-family="sans" font-size="10.00">convert_to_pdbqt</text>
</g>
<!-- 2&#45;&gt;1 -->
<g id="edge9" class="edge">
<title>2&#45;&gt;1</title>
<path fill="none" stroke="grey" stroke-width="2" d="M70.61,-287.7C68.95,-279.98 66.97,-270.71 65.12,-262.11"/>
<polygon fill="grey" stroke="grey" stroke-width="2" points="68.5,-261.15 62.98,-252.1 61.65,-262.62 68.5,-261.15"/>
</g>
<!-- 3 -->
<g id="node4" class="node">
<title>3</title>
<path fill="none" stroke="#d8a456" stroke-width="2" stroke-dasharray="5,2" d="M331.31,-396C331.31,-396 247.31,-396 247.31,-396 241.31,-396 235.31,-390 235.31,-384 235.31,-384 235.31,-372 235.31,-372 235.31,-366 241.31,-360 247.31,-360 247.31,-360 331.31,-360 331.31,-360 337.31,-360 343.31,-366 343.31,-372 343.31,-372 343.31,-384 343.31,-384 343.31,-390 337.31,-396 331.31,-396"/>
<text text-anchor="middle" x="289.31" y="-381" font-family="sans" font-size="10.00">prepare_structures</text>
<text text-anchor="middle" x="289.31" y="-370" font-family="sans" font-size="10.00">pdb: 2ito</text>
</g>
<!-- 3&#45;&gt;2 -->
<g id="edge10" class="edge">
<title>3&#45;&gt;2</title>
<path fill="none" stroke="grey" stroke-width="2" d="M236.99,-359.97C206.13,-349.92 166.94,-337.16 134.76,-326.68"/>
<polygon fill="grey" stroke="grey" stroke-width="2" points="135.6,-323.27 125.01,-323.51 133.44,-329.93 135.6,-323.27"/>
</g>
<!-- 6 -->
<g id="node7" class="node">
<title>6</title>
<path fill="none" stroke="#78d856" stroke-width="2" d="M137.31,-108C137.31,-108 67.31,-108 67.31,-108 61.31,-108 55.31,-102 55.31,-96 55.31,-96 55.31,-84 55.31,-84 55.31,-78 61.31,-72 67.31,-72 67.31,-72 137.31,-72 137.31,-72 143.31,-72 149.31,-78 149.31,-84 149.31,-84 149.31,-96 149.31,-96 149.31,-102 143.31,-108 137.31,-108"/>
<text text-anchor="middle" x="102.31" y="-93" font-family="sans" font-size="10.00">visualize_poses</text>
<text text-anchor="middle" x="102.31" y="-82" font-family="sans" font-size="10.00">pose: pose_00</text>
</g>
<!-- 3&#45;&gt;6 -->
<g id="edge14" class="edge">
<title>3&#45;&gt;6</title>
<path fill="none" stroke="grey" stroke-width="2" d="M276.01,-359.55C268.32,-349.32 258.57,-336.07 250.31,-324 199.88,-250.31 144.46,-160.46 118.03,-117.01"/>
<polygon fill="grey" stroke="grey" stroke-width="2" points="120.87,-114.95 112.69,-108.22 114.89,-118.58 120.87,-114.95"/>
</g>
<!-- 7 -->
<g id="node8" class="node">
<title>7</title>
<path fill="none" stroke="#78d856" stroke-width="2" d="M249.31,-108C249.31,-108 179.31,-108 179.31,-108 173.31,-108 167.31,-102 167.31,-96 167.31,-96 167.31,-84 167.31,-84 167.31,-78 173.31,-72 179.31,-72 179.31,-72 249.31,-72 249.31,-72 255.31,-72 261.31,-78 261.31,-84 261.31,-84 261.31,-96 261.31,-96 261.31,-102 255.31,-108 249.31,-108"/>
<text text-anchor="middle" x="214.31" y="-93" font-family="sans" font-size="10.00">visualize_poses</text>
<text text-anchor="middle" x="214.31" y="-82" font-family="sans" font-size="10.00">pose: pose_01</text>
</g>
<!-- 3&#45;&gt;7 -->
<g id="edge16" class="edge">
<title>3&#45;&gt;7</title>
<path fill="none" stroke="grey" stroke-width="2" d="M281.98,-360C267.82,-326.34 236.84,-248.56 222.31,-180 218,-159.64 216.01,-136.18 215.09,-118.46"/>
<polygon fill="grey" stroke="grey" stroke-width="2" points="218.58,-118.08 214.65,-108.24 211.59,-118.38 218.58,-118.08"/>
</g>
<!-- 8 -->
<g id="node9" class="node">
<title>8</title>
<path fill="none" stroke="#78d856" stroke-width="2" d="M399.31,-108C399.31,-108 329.31,-108 329.31,-108 323.31,-108 317.31,-102 317.31,-96 317.31,-96 317.31,-84 317.31,-84 317.31,-78 323.31,-72 329.31,-72 329.31,-72 399.31,-72 399.31,-72 405.31,-72 411.31,-78 411.31,-84 411.31,-84 411.31,-96 411.31,-96 411.31,-102 405.31,-108 399.31,-108"/>
<text text-anchor="middle" x="364.31" y="-93" font-family="sans" font-size="10.00">visualize_poses</text>
<text text-anchor="middle" x="364.31" y="-82" font-family="sans" font-size="10.00">pose: pose_02</text>
</g>
<!-- 3&#45;&gt;8 -->
<g id="edge18" class="edge">
<title>3&#45;&gt;8</title>
<path fill="none" stroke="grey" stroke-width="2" d="M296.46,-359.97C310.28,-326.27 340.59,-248.41 355.31,-180 359.7,-159.63 361.96,-136.17 363.12,-118.45"/>
<polygon fill="grey" stroke="grey" stroke-width="2" points="366.62,-118.42 363.71,-108.24 359.64,-118.02 366.62,-118.42"/>
</g>
<!-- 9 -->
<g id="node10" class="node">
<title>9</title>
<path fill="none" stroke="#78d856" stroke-width="2" d="M511.31,-108C511.31,-108 441.31,-108 441.31,-108 435.31,-108 429.31,-102 429.31,-96 429.31,-96 429.31,-84 429.31,-84 429.31,-78 435.31,-72 441.31,-72 441.31,-72 511.31,-72 511.31,-72 517.31,-72 523.31,-78 523.31,-84 523.31,-84 523.31,-96 523.31,-96 523.31,-102 517.31,-108 511.31,-108"/>
<text text-anchor="middle" x="476.31" y="-93" font-family="sans" font-size="10.00">visualize_poses</text>
<text text-anchor="middle" x="476.31" y="-82" font-family="sans" font-size="10.00">pose: pose_03</text>
</g>
<!-- 3&#45;&gt;9 -->
<g id="edge20" class="edge">
<title>3&#45;&gt;9</title>
<path fill="none" stroke="grey" stroke-width="2" d="M304.23,-359.77C312.78,-349.61 323.53,-336.36 332.31,-324 383.75,-251.58 436.79,-160.79 461.71,-117"/>
<polygon fill="grey" stroke="grey" stroke-width="2" points="464.84,-118.57 466.73,-108.14 458.75,-115.12 464.84,-118.57"/>
</g>
<!-- 10 -->
<g id="node11" class="node">
<title>10</title>
<path fill="none" stroke="#78d856" stroke-width="2" d="M623.31,-108C623.31,-108 553.31,-108 553.31,-108 547.31,-108 541.31,-102 541.31,-96 541.31,-96 541.31,-84 541.31,-84 541.31,-78 547.31,-72 553.31,-72 553.31,-72 623.31,-72 623.31,-72 629.31,-72 635.31,-78 635.31,-84 635.31,-84 635.31,-96 635.31,-96 635.31,-102 629.31,-108 623.31,-108"/>
<text text-anchor="middle" x="588.31" y="-93" font-family="sans" font-size="10.00">visualize_poses</text>
<text text-anchor="middle" x="588.31" y="-82" font-family="sans" font-size="10.00">pose: pose_04</text>
</g>
<!-- 3&#45;&gt;10 -->
<g id="edge22" class="edge">
<title>3&#45;&gt;10</title>
<path fill="none" stroke="grey" stroke-width="2" d="M313.26,-359.86C326.84,-349.84 343.93,-336.7 358.31,-324 438.93,-252.8 526.03,-159.56 565.98,-115.76"/>
<polygon fill="grey" stroke="grey" stroke-width="2" points="568.75,-117.92 572.88,-108.17 563.57,-113.21 568.75,-117.92"/>
</g>
<!-- 4&#45;&gt;0 -->
<g id="edge2" class="edge">
<title>4&#45;&gt;0</title>
<path fill="none" stroke="grey" stroke-width="2" d="M48.48,-143.66C39.93,-124.17 30.39,-92.56 46.31,-72 66.67,-45.71 160.66,-30.1 214.03,-23.22"/>
<polygon fill="grey" stroke="grey" stroke-width="2" points="214.64,-26.67 224.12,-21.95 213.77,-19.72 214.64,-26.67"/>
</g>
<!-- 5&#45;&gt;0 -->
<g id="edge3" class="edge">
<title>5&#45;&gt;0</title>
<path fill="none" stroke="grey" stroke-width="2" d="M286.34,-143.77C283.07,-125.72 277.32,-96.62 270.31,-72 267.88,-63.44 264.77,-54.27 261.78,-46.01"/>
<polygon fill="grey" stroke="grey" stroke-width="2" points="265.01,-44.63 258.24,-36.47 258.44,-47.07 265.01,-44.63"/>
</g>
<!-- 5&#45;&gt;6 -->
<g id="edge13" class="edge">
<title>5&#45;&gt;6</title>
<path fill="none" stroke="grey" stroke-width="2" d="M243.57,-143.88C217.55,-134.14 184.79,-121.87 157.37,-111.61"/>
<polygon fill="grey" stroke="grey" stroke-width="2" points="158.5,-108.3 147.91,-108.07 156.05,-114.85 158.5,-108.3"/>
</g>
<!-- 5&#45;&gt;7 -->
<g id="edge15" class="edge">
<title>5&#45;&gt;7</title>
<path fill="none" stroke="grey" stroke-width="2" d="M270.77,-143.7C261.51,-135.05 250.15,-124.45 240.06,-115.03"/>
<polygon fill="grey" stroke="grey" stroke-width="2" points="242.34,-112.37 232.64,-108.1 237.56,-117.49 242.34,-112.37"/>
</g>
<!-- 5&#45;&gt;8 -->
<g id="edge17" class="edge">
<title>5&#45;&gt;8</title>
<path fill="none" stroke="grey" stroke-width="2" d="M307.85,-143.7C317.12,-135.05 328.48,-124.45 338.57,-115.03"/>
<polygon fill="grey" stroke="grey" stroke-width="2" points="341.06,-117.49 345.99,-108.1 336.29,-112.37 341.06,-117.49"/>
</g>
<!-- 5&#45;&gt;9 -->
<g id="edge19" class="edge">
<title>5&#45;&gt;9</title>
<path fill="none" stroke="grey" stroke-width="2" d="M335.06,-143.88C361.08,-134.14 393.84,-121.87 421.26,-111.61"/>
<polygon fill="grey" stroke="grey" stroke-width="2" points="422.58,-114.85 430.72,-108.07 420.12,-108.3 422.58,-114.85"/>
</g>
<!-- 5&#45;&gt;10 -->
<g id="edge21" class="edge">
<title>5&#45;&gt;10</title>
<path fill="none" stroke="grey" stroke-width="2" d="M347.07,-149.76C394.18,-140.28 462.64,-125.81 530.96,-108.26"/>
<polygon fill="grey" stroke="grey" stroke-width="2" points="532.23,-111.54 541.03,-105.64 530.47,-104.77 532.23,-111.54"/>
</g>
<!-- 6&#45;&gt;0 -->
<g id="edge4" class="edge">
<title>6&#45;&gt;0</title>
<path fill="none" stroke="grey" stroke-width="2" d="M138.76,-71.88C161.93,-60.99 191.82,-46.95 214.97,-36.07"/>
<polygon fill="grey" stroke="grey" stroke-width="2" points="216.56,-39.2 224.12,-31.78 213.58,-32.86 216.56,-39.2"/>
</g>
<!-- 7&#45;&gt;0 -->
<g id="edge5" class="edge">
<title>7&#45;&gt;0</title>
<path fill="none" stroke="grey" stroke-width="2" d="M223.46,-71.7C227.72,-63.64 232.87,-53.89 237.58,-44.98"/>
<polygon fill="grey" stroke="grey" stroke-width="2" points="240.69,-46.58 242.27,-36.1 234.5,-43.31 240.69,-46.58"/>
</g>
<!-- 8&#45;&gt;0 -->
<g id="edge6" class="edge">
<title>8&#45;&gt;0</title>
<path fill="none" stroke="grey" stroke-width="2" d="M336.67,-71.88C321.79,-62.66 303.25,-51.17 287.25,-41.26"/>
<polygon fill="grey" stroke="grey" stroke-width="2" points="289.02,-38.24 278.67,-35.95 285.33,-44.19 289.02,-38.24"/>
</g>
<!-- 9&#45;&gt;0 -->
<g id="edge7" class="edge">
<title>9&#45;&gt;0</title>
<path fill="none" stroke="grey" stroke-width="2" d="M429.15,-74.33C387.15,-61.26 326.57,-42.41 288.08,-30.44"/>
<polygon fill="grey" stroke="grey" stroke-width="2" points="288.91,-27.03 278.32,-27.4 286.83,-33.71 288.91,-27.03"/>
</g>
<!-- 10&#45;&gt;0 -->
<g id="edge8" class="edge">
<title>10&#45;&gt;0</title>
<path fill="none" stroke="grey" stroke-width="2" d="M541.06,-74.26C538.11,-73.46 535.17,-72.7 532.31,-72 445.98,-50.82 342.94,-33.34 288.81,-24.74"/>
<polygon fill="grey" stroke="grey" stroke-width="2" points="289.07,-21.24 278.65,-23.15 287.98,-28.16 289.07,-21.24"/>
</g>
</g>
</svg>
